<?xml version="1.0" encoding="UTF-8"?>
<!DOCTYPE svg PUBLIC "-//W3C//DTD SVG 1.1//EN" "http://www.w3.org/Graphics/SVG/1.1/DTD/svg11.dtd">
<!-- Creator: CorelDRAW 2020 (64-Bit) -->
<svg xmlns="http://www.w3.org/2000/svg" xml:space="preserve" width="63.5mm" height="63.5mm" version="1.1" style="shape-rendering:geometricPrecision; text-rendering:geometricPrecision; image-rendering:optimizeQuality; fill-rule:evenodd; clip-rule:evenodd"
viewBox="0 0 6350 6350"
 xmlns:xlink="http://www.w3.org/1999/xlink"
 xmlns:xodm="http://www.corel.com/coreldraw/odm/2003">
 <defs>
  <style type="text/css">
   <![CDATA[
    .fil0 {fill:#299400}
    .fil1 {fill:white}
   ]]>
  </style>
 </defs>
 <g id="Слой_x0020_1">
  <metadata id="CorelCorpID_0Corel-Layer"/>
  <g id="_1942755646576">
   <path class="fil0" d="M3162.72 6350c1746.3,0 3175,-1422.4 3175,-3175 0,-1752.6 -1428.7,-3175 -3175,-3175 -1752.6,0 -3175,1422.4 -3175,3175 0,1752.6 1422.4,3175 3175,3175z"/>
   <path class="fil1" d="M3162.72 992.2c1091.4,0 1832.2,840.1 1832.2,1746.3 0,363.8 -79.4,681.3 -264.6,1078.2 -1084.8,0 -1283.2,721 -1329.5,1203.9l-33.1 337.3 -410 -0.1 -33.1 -337.3c-46.3,-482.9 -244.7,-1203.9 -1329.5,-1203.9 -185.2,-396.9 -264.6,-714.4 -264.6,-1078.2 0,-906.2 740.8,-1746.3 1832.2,-1746.3l0 0.1z"/>
  </g>
 </g>
</svg>
